<svg width="1660" height="355" viewBox="0 0 1660 355" fill="none" xmlns="http://www.w3.org/2000/svg">
<path d="M174 70C174 31.3401 205.34 0 244 0H473C511.66 0 543 31.3401 543 70V230C543 268.66 511.66 300 473 300H244C205.34 300 174 268.66 174 230V70Z" fill="#FF0033"/>
<path d="M434.082 136.962C444.193 142.714 444.193 157.286 434.082 163.038L325.667 224.715C315.668 230.404 303.25 223.182 303.25 211.678V88.3224C303.25 76.8178 315.668 69.5958 325.667 75.2846L434.082 136.962Z" fill="white"/>
<path d="M348.5 300C348.5 300 348.73 299.977 349.081 300H433C433 300 365.25 348.453 356 353C346.482 357.679 343.904 350.5 344.5 346C345.096 341.5 351.5 311.5 352.5 305.5C353.286 300.786 350.367 300.084 349.081 300H348.5Z" fill="#FF0033"/>
<path d="M0 157.5C0 150.044 6.04416 144 13.5 144C20.9558 144 27 150.044 27 157.5V194.5C27 201.956 20.9558 208 13.5 208C6.04416 208 0 201.956 0 194.5V157.5Z" fill="#FB7299"/>
<path d="M690 158.5C690 151.044 696.044 145 703.5 145C710.956 145 717 151.044 717 158.5V195.5C717 202.956 710.956 209 703.5 209C696.044 209 690 202.956 690 195.5V158.5Z" fill="#00A1D6"/>
<path d="M126 136.5C126 129.044 132.044 123 139.5 123C146.956 123 153 129.044 153 136.5V218.5C153 225.956 146.956 232 139.5 232C132.044 232 126 225.956 126 218.5V136.5Z" fill="#FB7299"/>
<path d="M564 136.5C564 129.044 570.044 123 577.5 123C584.956 123 591 129.044 591 136.5V218.5C591 225.956 584.956 232 577.5 232C570.044 232 564 225.956 564 218.5V136.5Z" fill="#00A1D6"/>
<path d="M84 76.5C84 69.0442 90.0442 63 97.5 63C104.956 63 111 69.0442 111 76.5V272.5C111 279.956 104.956 286 97.5 286C90.0442 286 84 279.956 84 272.5V76.5Z" fill="#FB7299"/>
<path d="M606 76.5C606 69.0442 612.044 63 619.5 63C626.956 63 633 69.0442 633 76.5V272.5C633 279.956 626.956 286 619.5 286C612.044 286 606 279.956 606 272.5V76.5Z" fill="#00A1D6"/>
<path d="M42 123.5C42 116.044 48.0442 110 55.5 110C62.9558 110 69 116.044 69 123.5V226.5C69 233.956 62.9558 240 55.5 240C48.0442 240 42 233.956 42 226.5V123.5Z" fill="#FB7299"/>
<path d="M648 125.5C648 118.044 654.044 112 661.5 112C668.956 112 675 118.044 675 125.5V228.5C675 235.956 668.956 242 661.5 242C654.044 242 648 235.956 648 228.5V125.5Z" fill="#00A1D6"/>
<path d="M981.205 135.561C993.786 135.561 1005.3 138.393 1015.64 144.135H1015.64C1026 149.741 1034.15 157.832 1040.04 168.301H1040.04C1046.12 178.843 1049.08 190.988 1049.08 204.575C1049.08 218.208 1046.03 230.451 1039.77 241.148C1033.72 251.605 1025.42 259.747 1014.93 265.485C1004.46 271.212 992.879 274.043 980.296 274.043C967.854 274.043 956.416 271.206 946.088 265.468L946.074 265.461L946.058 265.452C935.855 259.692 927.793 251.531 921.913 241.076L921.868 240.996C916.123 230.327 913.326 218.139 913.326 204.575C913.326 191.13 916.213 179.064 922.139 168.528L922.146 168.516L922.152 168.506C928.193 157.893 936.427 149.717 946.823 144.106C957.146 138.383 968.644 135.561 981.205 135.561ZM1095.54 137.604V212.747C1095.54 224.167 1098.41 232.234 1103.48 237.685C1108.56 243.004 1115.61 245.883 1125.27 245.883C1135.21 245.882 1142.48 242.865 1147.72 237.257C1152.92 231.686 1155.91 223.185 1155.91 210.931V137.604H1186.57V272H1155.91V261.93C1153.12 264.267 1150.02 266.306 1146.61 268.048L1146.59 268.057L1146.57 268.067C1138.86 271.925 1130.36 273.816 1121.18 273.816C1110.8 273.816 1101.31 271.702 1092.81 267.369L1092.77 267.351L1092.74 267.333C1084.13 262.775 1077.32 256.019 1072.34 247.217L1072.31 247.154C1067.42 238.231 1065.11 227.599 1065.11 215.471V137.604H1095.54ZM806.366 103.781L807.735 106.591L842.284 177.497L876.833 106.591L878.203 103.781H912.513L908.685 111.098L857.726 208.527V272H827.069V208.531L775.886 111.106L772.039 103.781H806.366ZM980.977 163.494C974.212 163.494 968.081 165.041 962.495 168.1L962.476 168.111L962.458 168.121C957.216 170.933 952.883 175.323 949.504 181.539C946.21 187.6 944.436 195.208 944.436 204.575C944.436 214.112 946.142 221.804 949.293 227.867C952.669 234.068 957.009 238.543 962.276 241.507C967.703 244.409 973.679 245.883 980.296 245.883C986.893 245.883 993.044 244.343 998.822 241.253C1004.42 238.257 1008.98 233.746 1012.49 227.539L1012.51 227.504L1012.53 227.468C1016.07 221.436 1017.97 213.883 1017.97 204.575C1017.97 195.237 1016.13 187.657 1012.72 181.611C1009.2 175.389 1004.72 170.977 999.314 168.144L999.274 168.123L999.233 168.1C993.631 165.033 987.573 163.494 980.977 163.494Z" fill="#FF0033" stroke="#FF0033" stroke-width="10"/>
<path d="M1548.83 94.02V151.444C1552.09 148.369 1555.81 145.643 1559.96 143.262C1568.97 138.09 1579.15 135.561 1590.37 135.561C1602.39 135.561 1613.35 138.415 1623.11 144.206C1632.86 149.992 1640.52 158.17 1646.07 168.604C1651.67 178.985 1654.39 190.951 1654.39 204.348C1654.39 217.608 1651.67 229.62 1646.1 240.261C1640.56 250.86 1632.83 259.195 1622.94 265.138L1622.94 265.139C1613.18 271.093 1602.28 274.043 1590.37 274.043C1578.87 274.043 1568.53 271.526 1559.5 266.342L1559.49 266.332L1559.47 266.322C1555.51 264.006 1551.96 261.377 1548.83 258.435V272H1518.18V94.02H1548.83ZM1402.27 137.604V212.747C1402.27 224.166 1405.15 232.234 1410.21 237.685C1415.29 243.004 1422.34 245.883 1432 245.883C1441.94 245.883 1449.22 242.865 1454.45 237.256C1459.65 231.685 1462.64 223.185 1462.64 210.931V137.604H1493.3V272H1462.64V261.93C1459.86 264.267 1456.75 266.307 1453.34 268.048L1453.32 268.058L1453.31 268.067C1445.59 271.925 1437.1 273.816 1427.92 273.816C1417.54 273.816 1408.04 271.702 1399.54 267.369L1399.5 267.351L1399.47 267.332C1390.86 262.775 1384.05 256.02 1379.07 247.217L1379.05 247.186L1379.04 247.154C1374.15 238.231 1371.84 227.599 1371.84 215.471V137.604H1402.27ZM1266.74 103.781C1284.62 103.781 1300.35 107.154 1313.76 114.102H1313.76C1327.3 120.888 1337.72 130.727 1344.88 143.576H1344.88C1352.17 156.4 1355.73 171.343 1355.73 188.231C1355.73 205.137 1352.17 220.095 1344.86 232.928L1344.86 232.927C1337.68 245.634 1327.24 255.39 1313.69 262.165L1313.68 262.17L1313.67 262.176C1300.28 268.791 1284.58 272 1266.74 272H1212.48V103.781H1266.74ZM1586.05 163.494C1579.37 163.494 1573.2 165.155 1567.46 168.492L1567.44 168.5L1567.42 168.51C1561.96 171.633 1557.44 176.288 1553.9 182.673L1553.59 183.25C1550.47 189.244 1548.83 196.306 1548.83 204.575C1548.83 213.248 1550.57 220.647 1553.89 226.914C1557.42 233.13 1561.94 237.81 1567.44 241.101C1573.17 244.289 1579.35 245.883 1586.05 245.883C1592.94 245.883 1599.1 244.277 1604.65 241.113C1610.32 237.815 1614.84 233.132 1618.21 226.933C1621.53 220.673 1623.28 213.196 1623.28 204.348C1623.28 195.646 1621.53 188.324 1618.21 182.219C1614.85 176.034 1610.36 171.449 1604.73 168.308L1604.71 168.295L1604.69 168.284C1599.13 165.107 1592.95 163.494 1586.05 163.494ZM1243.14 244.975H1266.74C1286.3 244.975 1300.43 239.848 1309.95 230.338C1319.53 220.618 1324.62 206.813 1324.62 188.231C1324.62 169.502 1319.46 155.539 1309.71 145.661L1309.7 145.649L1309.69 145.636C1300.16 135.835 1286.11 130.579 1266.74 130.579H1243.14V244.975Z" fill="url(#paint0_linear_18_10)" stroke="url(#paint1_linear_18_10)" stroke-width="10"/>
<defs>
<linearGradient id="paint0_linear_18_10" x1="1660" y1="187.5" x2="1200" y2="187.5" gradientUnits="userSpaceOnUse">
<stop offset="0.1" stop-color="#00AEEC"/>
<stop offset="0.9" stop-color="#FB7299"/>
</linearGradient>
<linearGradient id="paint1_linear_18_10" x1="1660" y1="187.5" x2="1200" y2="187.5" gradientUnits="userSpaceOnUse">
<stop offset="0.1" stop-color="#00AEEC"/>
<stop offset="0.9" stop-color="#FB7299"/>
</linearGradient>
</defs>
</svg>
