<svg width="897" height="341" viewBox="0 0 897 341" fill="none" xmlns="http://www.w3.org/2000/svg">
<mask id="path-1-outside-1_8_57" maskUnits="userSpaceOnUse" x="-0.76358" y="81" width="429" height="182" fill="black">
<rect fill="white" x="-0.76358" y="81" width="429" height="182"/>
<path d="M140.491 91.781L88.9624 190.299V250H68.3054V190.299L16.5494 91.781H39.4764L78.5204 171.912L117.564 91.781H140.491ZM216.533 252.043C204.88 252.043 194.287 249.395 184.753 244.098C175.37 238.801 167.955 231.31 162.507 221.625C157.21 211.788 154.562 200.438 154.562 187.575C154.562 174.863 157.286 163.664 162.734 153.979C168.333 144.142 175.9 136.651 185.434 131.506C194.968 126.209 205.637 123.561 217.441 123.561C229.245 123.561 239.914 126.209 249.448 131.506C258.982 136.651 266.473 144.067 271.921 153.752C277.52 163.437 280.32 174.712 280.32 187.575C280.32 200.438 277.445 211.788 271.694 221.625C266.095 231.31 258.452 238.801 248.767 244.098C239.082 249.395 228.337 252.043 216.533 252.043ZM216.533 233.883C223.948 233.883 230.91 232.143 237.417 228.662C243.924 225.181 249.145 219.96 253.08 212.999C257.166 206.038 259.209 197.563 259.209 187.575C259.209 177.587 257.242 169.112 253.307 162.151C249.372 155.19 244.227 150.044 237.871 146.715C231.515 143.234 224.629 141.494 217.214 141.494C209.647 141.494 202.686 143.234 196.33 146.715C190.125 150.044 185.131 155.19 181.348 162.151C177.565 169.112 175.673 177.587 175.673 187.575C175.673 197.714 177.489 206.265 181.121 213.226C184.904 220.187 189.898 225.408 196.103 228.889C202.308 232.218 209.118 233.883 216.533 233.883ZM417.802 125.604V250H397.145V231.613C393.21 237.969 387.687 242.963 380.574 246.595C373.613 250.076 365.895 251.816 357.42 251.816C347.735 251.816 339.033 249.849 331.315 245.914C323.597 241.828 317.468 235.775 312.928 227.754C308.539 219.733 306.345 209.972 306.345 198.471V125.604H326.775V195.747C326.775 208.005 329.877 217.463 336.082 224.122C342.287 230.629 350.761 233.883 361.506 233.883C372.553 233.883 381.255 230.478 387.611 223.668C393.967 216.858 397.145 206.946 397.145 193.931V125.604H417.802Z"/>
</mask>
<path d="M140.491 91.781L88.9624 190.299V250H68.3054V190.299L16.5494 91.781H39.4764L78.5204 171.912L117.564 91.781H140.491ZM216.533 252.043C204.88 252.043 194.287 249.395 184.753 244.098C175.37 238.801 167.955 231.31 162.507 221.625C157.21 211.788 154.562 200.438 154.562 187.575C154.562 174.863 157.286 163.664 162.734 153.979C168.333 144.142 175.9 136.651 185.434 131.506C194.968 126.209 205.637 123.561 217.441 123.561C229.245 123.561 239.914 126.209 249.448 131.506C258.982 136.651 266.473 144.067 271.921 153.752C277.52 163.437 280.32 174.712 280.32 187.575C280.32 200.438 277.445 211.788 271.694 221.625C266.095 231.31 258.452 238.801 248.767 244.098C239.082 249.395 228.337 252.043 216.533 252.043ZM216.533 233.883C223.948 233.883 230.91 232.143 237.417 228.662C243.924 225.181 249.145 219.96 253.08 212.999C257.166 206.038 259.209 197.563 259.209 187.575C259.209 177.587 257.242 169.112 253.307 162.151C249.372 155.19 244.227 150.044 237.871 146.715C231.515 143.234 224.629 141.494 217.214 141.494C209.647 141.494 202.686 143.234 196.33 146.715C190.125 150.044 185.131 155.19 181.348 162.151C177.565 169.112 175.673 177.587 175.673 187.575C175.673 197.714 177.489 206.265 181.121 213.226C184.904 220.187 189.898 225.408 196.103 228.889C202.308 232.218 209.118 233.883 216.533 233.883ZM417.802 125.604V250H397.145V231.613C393.21 237.969 387.687 242.963 380.574 246.595C373.613 250.076 365.895 251.816 357.42 251.816C347.735 251.816 339.033 249.849 331.315 245.914C323.597 241.828 317.468 235.775 312.928 227.754C308.539 219.733 306.345 209.972 306.345 198.471V125.604H326.775V195.747C326.775 208.005 329.877 217.463 336.082 224.122C342.287 230.629 350.761 233.883 361.506 233.883C372.553 233.883 381.255 230.478 387.611 223.668C393.967 216.858 397.145 206.946 397.145 193.931V125.604H417.802Z" fill="#FF0033"/>
<path d="M140.491 91.781L149.353 96.4157L157.007 81.781H140.491V91.781ZM88.9624 190.299L80.1013 185.664L78.9624 187.842V190.299H88.9624ZM88.9624 250V260H98.9624V250H88.9624ZM68.3054 250H58.3054V260H68.3054V250ZM68.3054 190.299H78.3054V187.832L77.1581 185.648L68.3054 190.299ZM16.5494 91.781V81.781H0L7.6967 96.4317L16.5494 91.781ZM39.4764 91.781L48.4661 87.4008L45.7278 81.781H39.4764V91.781ZM78.5204 171.912L69.5308 176.292L78.5204 194.742L87.5101 176.292L78.5204 171.912ZM117.564 91.781V81.781H111.313L108.575 87.4008L117.564 91.781ZM140.491 91.781L131.63 87.1463L80.1013 185.664L88.9624 190.299L97.8235 194.934L149.353 96.4157L140.491 91.781ZM88.9624 190.299H78.9624V250H88.9624H98.9624V190.299H88.9624ZM88.9624 250V240H68.3054V250V260H88.9624V250ZM68.3054 250H78.3054V190.299H68.3054H58.3054V250H68.3054ZM68.3054 190.299L77.1581 185.648L25.4021 87.1302L16.5494 91.781L7.6967 96.4317L59.4527 194.95L68.3054 190.299ZM16.5494 91.781V101.781H39.4764V91.781V81.781H16.5494V91.781ZM39.4764 91.781L30.4868 96.1612L69.5308 176.292L78.5204 171.912L87.5101 167.532L48.4661 87.4008L39.4764 91.781ZM78.5204 171.912L87.5101 176.292L126.554 96.1612L117.564 91.781L108.575 87.4008L69.5308 167.532L78.5204 171.912ZM117.564 91.781V101.781H140.491V91.781V81.781H117.564V91.781ZM184.753 244.098L179.837 252.806L179.867 252.823L179.896 252.84L184.753 244.098ZM162.507 221.625L153.702 226.366L153.746 226.447L153.791 226.528L162.507 221.625ZM162.734 153.979L154.043 149.032L154.031 149.054L154.018 149.076L162.734 153.979ZM185.434 131.506L190.183 140.306L190.237 140.277L190.29 140.248L185.434 131.506ZM249.448 131.506L244.591 140.248L244.645 140.277L244.699 140.306L249.448 131.506ZM271.921 153.752L263.205 158.655L263.234 158.706L263.264 158.757L271.921 153.752ZM271.694 221.625L263.061 216.578L263.049 216.599L263.037 216.62L271.694 221.625ZM248.767 244.098L253.565 252.872V252.872L248.767 244.098ZM253.08 212.999L244.456 207.937L244.414 208.007L244.374 208.078L253.08 212.999ZM237.871 146.715L233.068 155.486L233.149 155.53L233.231 155.573L237.871 146.715ZM196.33 146.715L201.058 155.527L201.096 155.506L201.133 155.486L196.33 146.715ZM181.348 162.151L190.134 166.926V166.926L181.348 162.151ZM181.121 213.226L172.255 217.852L172.294 217.927L172.335 218.001L181.121 213.226ZM196.103 228.889L191.21 237.61L191.292 237.656L191.375 237.701L196.103 228.889ZM216.533 252.043V242.043C206.46 242.043 197.556 239.771 189.609 235.356L184.753 244.098L179.896 252.84C191.018 259.018 203.301 262.043 216.533 262.043V252.043ZM184.753 244.098L189.669 235.39C181.928 231.02 175.805 224.868 171.223 216.722L162.507 221.625L153.791 226.528C160.105 237.752 168.812 246.583 179.837 252.806L184.753 244.098ZM162.507 221.625L171.312 216.884C166.911 208.712 164.562 199.036 164.562 187.575H154.562H144.562C144.562 201.841 147.509 214.865 153.702 226.366L162.507 221.625ZM154.562 187.575H164.562C164.562 176.33 166.958 166.866 171.45 158.882L162.734 153.979L154.018 149.076C147.613 160.463 144.562 173.396 144.562 187.575H154.562ZM162.734 153.979L171.425 158.926C176.141 150.641 182.374 144.521 190.183 140.306L185.434 131.506L180.685 122.706C169.426 128.782 160.526 137.644 154.043 149.032L162.734 153.979ZM185.434 131.506L190.29 140.248C198.218 135.843 207.192 133.561 217.441 133.561V123.561V113.561C204.081 113.561 191.718 116.575 180.577 122.764L185.434 131.506ZM217.441 123.561V133.561C227.689 133.561 236.664 135.843 244.591 140.248L249.448 131.506L254.304 122.764C243.164 116.575 230.801 113.561 217.441 113.561V123.561ZM249.448 131.506L244.699 140.306C252.524 144.529 258.659 150.573 263.205 158.655L271.921 153.752L280.637 148.849C274.287 137.561 265.44 128.773 254.197 122.706L249.448 131.506ZM271.921 153.752L263.264 158.757C267.859 166.705 270.32 176.202 270.32 187.575H280.32H290.32C290.32 173.221 287.182 160.169 280.578 148.747L271.921 153.752ZM280.32 187.575H270.32C270.32 198.898 267.805 208.462 263.061 216.578L271.694 221.625L280.327 226.672C287.084 215.114 290.32 201.979 290.32 187.575H280.32ZM271.694 221.625L263.037 216.62C258.341 224.742 252.024 230.919 243.969 235.324L248.767 244.098L253.565 252.872C264.88 246.684 273.848 237.879 280.351 226.63L271.694 221.625ZM248.767 244.098L243.969 235.324C235.856 239.761 226.78 242.043 216.533 242.043V252.043V262.043C229.894 262.043 242.307 259.029 253.565 252.872L248.767 244.098ZM216.533 233.883V243.883C225.585 243.883 234.168 241.741 242.133 237.48L237.417 228.662L232.7 219.844C227.651 222.545 222.311 223.883 216.533 223.883V233.883ZM237.417 228.662L242.133 237.48C250.453 233.03 256.999 226.388 261.786 217.92L253.08 212.999L244.374 208.078C241.292 213.532 237.396 217.333 232.7 219.844L237.417 228.662ZM253.08 212.999L261.704 218.061C266.882 209.24 269.209 198.923 269.209 187.575H259.209H249.209C249.209 196.203 247.45 202.836 244.456 207.937L253.08 212.999ZM259.209 187.575H269.209C269.209 176.286 266.982 166.023 262.013 157.23L253.307 162.151L244.601 167.072C247.501 172.202 249.209 178.888 249.209 187.575H259.209ZM253.307 162.151L262.013 157.23C257.242 148.791 250.764 142.18 242.511 137.857L237.871 146.715L233.231 155.573C237.689 157.909 241.502 161.588 244.601 167.072L253.307 162.151ZM237.871 146.715L242.674 137.944C234.81 133.638 226.267 131.494 217.214 131.494V141.494V151.494C222.991 151.494 228.22 152.831 233.068 155.486L237.871 146.715ZM217.214 141.494V131.494C208.045 131.494 199.421 133.621 191.527 137.944L196.33 146.715L201.133 155.486C205.951 152.848 211.249 151.494 217.214 151.494V141.494ZM196.33 146.715L191.602 137.903C183.471 142.266 177.155 148.924 172.562 157.376L181.348 162.151L190.134 166.926C193.107 161.456 196.78 157.822 201.058 155.527L196.33 146.715ZM181.348 162.151L172.562 157.376C167.8 166.136 165.673 176.345 165.673 187.575H175.673H185.673C185.673 178.829 187.329 172.088 190.134 166.926L181.348 162.151ZM175.673 187.575H165.673C165.673 198.87 167.693 209.107 172.255 217.852L181.121 213.226L189.987 208.6C187.285 203.422 185.673 196.559 185.673 187.575H175.673ZM181.121 213.226L172.335 218.001C176.912 226.424 183.179 233.105 191.21 237.61L196.103 228.889L200.995 220.168C196.617 217.712 192.896 213.95 189.907 208.451L181.121 213.226ZM196.103 228.889L191.375 237.701C199.111 241.852 207.558 243.883 216.533 243.883V233.883V223.883C210.677 223.883 205.504 222.585 200.831 220.077L196.103 228.889ZM417.802 125.604H427.802V115.604H417.802V125.604ZM417.802 250V260H427.802V250H417.802ZM397.145 250H387.145V260H397.145V250ZM397.145 231.613H407.145V196.461L388.642 226.349L397.145 231.613ZM380.574 246.595L385.046 255.539L385.084 255.52L385.122 255.501L380.574 246.595ZM331.315 245.914L326.636 254.752L326.704 254.788L326.773 254.823L331.315 245.914ZM312.928 227.754L304.155 232.554L304.19 232.617L304.225 232.68L312.928 227.754ZM306.345 125.604V115.604H296.345V125.604H306.345ZM326.775 125.604H336.775V115.604H326.775V125.604ZM336.082 224.122L328.766 230.939L328.805 230.981L328.845 231.023L336.082 224.122ZM387.611 223.668L380.301 216.845V216.845L387.611 223.668ZM397.145 125.604V115.604H387.145V125.604H397.145ZM417.802 125.604H407.802V250H417.802H427.802V125.604H417.802ZM417.802 250V240H397.145V250V260H417.802V250ZM397.145 250H407.145V231.613H397.145H387.145V250H397.145ZM397.145 231.613L388.642 226.349C385.735 231.046 381.628 234.828 376.026 237.689L380.574 246.595L385.122 255.501C393.745 251.098 400.686 244.892 405.648 236.877L397.145 231.613ZM380.574 246.595L376.102 237.651C370.65 240.377 364.483 241.816 357.42 241.816V251.816V261.816C367.307 261.816 376.576 259.774 385.046 255.539L380.574 246.595ZM357.42 251.816V241.816C349.125 241.816 342.009 240.141 335.857 237.005L331.315 245.914L326.773 254.823C336.057 259.556 346.344 261.816 357.42 261.816V251.816ZM331.315 245.914L335.994 237.076C330.058 233.934 325.285 229.284 321.631 222.828L312.928 227.754L304.225 232.68C309.651 242.265 317.136 249.722 326.636 254.752L331.315 245.914ZM312.928 227.754L321.701 222.954C318.299 216.737 316.345 208.719 316.345 198.471H306.345H296.345C296.345 211.225 298.78 222.729 304.155 232.554L312.928 227.754ZM306.345 198.471H316.345V125.604H306.345H296.345V198.471H306.345ZM306.345 125.604V135.604H326.775V125.604V115.604H306.345V125.604ZM326.775 125.604H316.775V195.747H326.775H336.775V125.604H326.775ZM326.775 195.747H316.775C316.775 209.641 320.311 221.866 328.766 230.939L336.082 224.122L343.398 217.305C339.444 213.061 336.775 206.369 336.775 195.747H326.775ZM336.082 224.122L328.845 231.023C337.3 239.891 348.603 243.883 361.506 243.883V233.883V223.883C352.92 223.883 347.273 221.368 343.319 217.221L336.082 224.122ZM361.506 233.883V243.883C374.765 243.883 386.324 239.703 394.922 230.491L387.611 223.668L380.301 216.845C376.187 221.253 370.341 223.883 361.506 223.883V233.883ZM387.611 223.668L394.922 230.491C403.59 221.203 407.145 208.467 407.145 193.931H397.145H387.145C387.145 205.424 384.344 212.513 380.301 216.845L387.611 223.668ZM397.145 193.931H407.145V125.604H397.145H387.145V193.931H397.145ZM397.145 125.604V135.604H417.802V125.604V115.604H397.145V125.604Z" fill="#FF0033" mask="url(#path-1-outside-1_8_57)"/>
<mask id="path-3-outside-2_8_57" maskUnits="userSpaceOnUse" x="443.236" y="72" width="453" height="191" fill="black">
<rect fill="white" x="443.236" y="72" width="453" height="191"/>
<path d="M502.974 91.781C520.226 91.781 535.133 95.0347 547.693 101.542C560.405 107.898 570.091 117.054 576.749 129.009C583.559 140.964 586.964 155.038 586.964 171.231C586.964 187.424 583.559 201.498 576.749 213.453C570.091 225.257 560.405 234.337 547.693 240.693C535.133 246.898 520.226 250 502.974 250H453.715V91.781H502.974ZM502.974 232.975C523.404 232.975 538.992 227.603 549.736 216.858C560.481 205.962 565.853 190.753 565.853 171.231C565.853 151.558 560.405 136.197 549.509 125.15C538.765 114.103 523.253 108.579 502.974 108.579H474.372V232.975H502.974ZM724.534 125.604V250H703.877V231.613C699.942 237.969 694.418 242.963 687.306 246.595C680.344 250.076 672.626 251.816 664.152 251.816C654.466 251.816 645.765 249.849 638.047 245.914C630.329 241.828 624.2 235.775 619.66 227.754C615.271 219.733 613.077 209.972 613.077 198.471V125.604H633.507V195.747C633.507 208.005 636.609 217.463 642.814 224.122C649.018 230.629 657.493 233.883 668.238 233.883C679.285 233.883 687.987 230.478 694.343 223.668C700.699 216.858 703.877 206.946 703.877 193.931V125.604H724.534ZM780.069 148.758C784.306 141.343 790.511 135.289 798.683 130.598C806.855 125.907 816.162 123.561 826.604 123.561C837.802 123.561 847.866 126.209 856.795 131.506C865.723 136.803 872.76 144.294 877.906 153.979C883.051 163.513 885.624 174.636 885.624 187.348C885.624 199.909 883.051 211.107 877.906 220.944C872.76 230.781 865.648 238.423 856.568 243.871C847.639 249.319 837.651 252.043 826.604 252.043C815.859 252.043 806.401 249.697 798.229 245.006C790.208 240.315 784.155 234.337 780.069 227.073V250H759.412V82.02H780.069V148.758ZM864.513 187.348C864.513 177.965 862.621 169.793 858.838 162.832C855.054 155.871 849.909 150.574 843.402 146.942C837.046 143.31 830.009 141.494 822.291 141.494C814.724 141.494 807.687 143.386 801.18 147.169C794.824 150.801 789.678 156.173 785.744 163.286C781.96 170.247 780.069 178.344 780.069 187.575C780.069 196.958 781.96 205.205 785.744 212.318C789.678 219.279 794.824 224.652 801.18 228.435C807.687 232.067 814.724 233.883 822.291 233.883C830.009 233.883 837.046 232.067 843.402 228.435C849.909 224.652 855.054 219.279 858.838 212.318C862.621 205.205 864.513 196.882 864.513 187.348Z"/>
</mask>
<path d="M502.974 91.781C520.226 91.781 535.133 95.0347 547.693 101.542C560.405 107.898 570.091 117.054 576.749 129.009C583.559 140.964 586.964 155.038 586.964 171.231C586.964 187.424 583.559 201.498 576.749 213.453C570.091 225.257 560.405 234.337 547.693 240.693C535.133 246.898 520.226 250 502.974 250H453.715V91.781H502.974ZM502.974 232.975C523.404 232.975 538.992 227.603 549.736 216.858C560.481 205.962 565.853 190.753 565.853 171.231C565.853 151.558 560.405 136.197 549.509 125.15C538.765 114.103 523.253 108.579 502.974 108.579H474.372V232.975H502.974ZM724.534 125.604V250H703.877V231.613C699.942 237.969 694.418 242.963 687.306 246.595C680.344 250.076 672.626 251.816 664.152 251.816C654.466 251.816 645.765 249.849 638.047 245.914C630.329 241.828 624.2 235.775 619.66 227.754C615.271 219.733 613.077 209.972 613.077 198.471V125.604H633.507V195.747C633.507 208.005 636.609 217.463 642.814 224.122C649.018 230.629 657.493 233.883 668.238 233.883C679.285 233.883 687.987 230.478 694.343 223.668C700.699 216.858 703.877 206.946 703.877 193.931V125.604H724.534ZM780.069 148.758C784.306 141.343 790.511 135.289 798.683 130.598C806.855 125.907 816.162 123.561 826.604 123.561C837.802 123.561 847.866 126.209 856.795 131.506C865.723 136.803 872.76 144.294 877.906 153.979C883.051 163.513 885.624 174.636 885.624 187.348C885.624 199.909 883.051 211.107 877.906 220.944C872.76 230.781 865.648 238.423 856.568 243.871C847.639 249.319 837.651 252.043 826.604 252.043C815.859 252.043 806.401 249.697 798.229 245.006C790.208 240.315 784.155 234.337 780.069 227.073V250H759.412V82.02H780.069V148.758ZM864.513 187.348C864.513 177.965 862.621 169.793 858.838 162.832C855.054 155.871 849.909 150.574 843.402 146.942C837.046 143.31 830.009 141.494 822.291 141.494C814.724 141.494 807.687 143.386 801.18 147.169C794.824 150.801 789.678 156.173 785.744 163.286C781.96 170.247 780.069 178.344 780.069 187.575C780.069 196.958 781.96 205.205 785.744 212.318C789.678 219.279 794.824 224.652 801.18 228.435C807.687 232.067 814.724 233.883 822.291 233.883C830.009 233.883 837.046 232.067 843.402 228.435C849.909 224.652 855.054 219.279 858.838 212.318C862.621 205.205 864.513 196.882 864.513 187.348Z" fill="url(#paint0_linear_8_57)"/>
<path d="M547.693 101.542L543.093 110.421L543.157 110.454L543.221 110.486L547.693 101.542ZM576.749 129.009L568.013 133.875L568.036 133.917L568.06 133.959L576.749 129.009ZM576.749 213.453L568.06 208.503L568.05 208.522L568.04 208.54L576.749 213.453ZM547.693 240.693L552.122 249.659L552.144 249.648L552.166 249.637L547.693 240.693ZM453.715 250H443.715V260H453.715V250ZM453.715 91.781V81.781H443.715V91.781H453.715ZM549.736 216.858L556.807 223.929L556.832 223.904L556.857 223.879L549.736 216.858ZM549.509 125.15L542.341 132.122L542.365 132.147L542.39 132.172L549.509 125.15ZM474.372 108.579V98.579H464.372V108.579H474.372ZM474.372 232.975H464.372V242.975H474.372V232.975ZM502.974 91.781V101.781C518.972 101.781 532.233 104.795 543.093 110.421L547.693 101.542L552.293 92.6628C538.032 85.2745 521.48 81.781 502.974 81.781V91.781ZM547.693 101.542L543.221 110.486C554.208 115.979 562.373 123.747 568.013 133.875L576.749 129.009L585.486 124.143C577.809 110.36 566.603 99.8165 552.166 92.5977L547.693 101.542ZM576.749 129.009L568.06 133.959C573.87 144.158 576.964 156.465 576.964 171.231H586.964H596.964C596.964 153.611 593.249 137.77 585.439 124.059L576.749 129.009ZM586.964 171.231H576.964C576.964 185.997 573.87 198.304 568.06 208.503L576.749 213.453L585.439 218.403C593.249 204.692 596.964 188.85 596.964 171.231H586.964ZM576.749 213.453L568.04 208.54C562.409 218.521 554.242 226.238 543.221 231.749L547.693 240.693L552.166 249.637C566.569 242.436 577.772 231.993 585.459 218.366L576.749 213.453ZM547.693 240.693L543.265 231.727C532.363 237.112 519.039 240 502.974 240V250V260C521.414 260 537.903 256.683 552.122 249.659L547.693 240.693ZM502.974 250V240H453.715V250V260H502.974V250ZM453.715 250H463.715V91.781H453.715H443.715V250H453.715ZM453.715 91.781V101.781H502.974V91.781V81.781H453.715V91.781ZM502.974 232.975V242.975C525.115 242.975 543.613 237.124 556.807 223.929L549.736 216.858L542.665 209.787C534.371 218.082 521.693 222.975 502.974 222.975V232.975ZM549.736 216.858L556.857 223.879C569.918 210.634 575.853 192.622 575.853 171.231H565.853H555.853C555.853 188.884 551.044 201.29 542.616 209.837L549.736 216.858ZM565.853 171.231H575.853C575.853 149.668 569.832 131.514 556.629 118.128L549.509 125.15L542.39 132.172C550.979 140.881 555.853 153.447 555.853 171.231H565.853ZM549.509 125.15L556.678 118.178C543.51 104.639 525.064 98.579 502.974 98.579V108.579V118.579C521.442 118.579 534.02 123.567 542.341 132.122L549.509 125.15ZM502.974 108.579V98.579H474.372V108.579V118.579H502.974V108.579ZM474.372 108.579H464.372V232.975H474.372H484.372V108.579H474.372ZM474.372 232.975V242.975H502.974V232.975V222.975H474.372V232.975ZM724.534 125.604H734.534V115.604H724.534V125.604ZM724.534 250V260H734.534V250H724.534ZM703.877 250H693.877V260H703.877V250ZM703.877 231.613H713.877V196.461L695.374 226.349L703.877 231.613ZM687.306 246.595L691.778 255.539L691.816 255.52L691.853 255.501L687.306 246.595ZM638.047 245.914L633.368 254.752L633.436 254.788L633.505 254.823L638.047 245.914ZM619.66 227.754L610.887 232.554L610.921 232.617L610.957 232.68L619.66 227.754ZM613.077 125.604V115.604H603.077V125.604H613.077ZM633.507 125.604H643.507V115.604H633.507V125.604ZM642.814 224.122L635.497 230.939L635.537 230.981L635.576 231.023L642.814 224.122ZM694.342 223.668L687.032 216.845H687.032L694.342 223.668ZM703.877 125.604V115.604H693.877V125.604H703.877ZM724.534 125.604H714.534V250H724.534H734.534V125.604H724.534ZM724.534 250V240H703.877V250V260H724.534V250ZM703.877 250H713.877V231.613H703.877H693.877V250H703.877ZM703.877 231.613L695.374 226.349C692.466 231.046 688.36 234.828 682.758 237.689L687.306 246.595L691.853 255.501C700.476 251.098 707.417 244.892 712.379 236.877L703.877 231.613ZM687.306 246.595L682.833 237.651C677.381 240.377 671.214 241.816 664.152 241.816V251.816V261.816C674.038 261.816 683.307 259.774 691.778 255.539L687.306 246.595ZM664.152 251.816V241.816C655.856 241.816 648.741 240.141 642.588 237.005L638.047 245.914L633.505 254.823C642.788 259.556 653.076 261.816 664.152 261.816V251.816ZM638.047 245.914L642.725 237.076C636.79 233.934 632.016 229.284 628.362 222.828L619.66 227.754L610.957 232.68C616.383 242.265 623.867 249.722 633.368 254.752L638.047 245.914ZM619.66 227.754L628.432 222.954C625.031 216.737 623.077 208.719 623.077 198.471H613.077H603.077C603.077 211.225 605.511 222.729 610.887 232.554L619.66 227.754ZM613.077 198.471H623.077V125.604H613.077H603.077V198.471H613.077ZM613.077 125.604V135.604H633.507V125.604V115.604H613.077V125.604ZM633.507 125.604H623.507V195.747H633.507H643.507V125.604H633.507ZM633.507 195.747H623.507C623.507 209.641 627.042 221.866 635.497 230.939L642.814 224.122L650.13 217.305C646.175 213.061 643.507 206.369 643.507 195.747H633.507ZM642.814 224.122L635.576 231.023C644.032 239.891 655.334 243.883 668.238 243.883V233.883V223.883C659.652 223.883 654.005 221.368 650.051 217.221L642.814 224.122ZM668.238 233.883V243.883C681.497 243.883 693.055 239.703 701.653 230.491L694.342 223.668L687.032 216.845C682.918 221.253 677.073 223.883 668.238 223.883V233.883ZM694.342 223.668L701.653 230.491C710.322 221.203 713.877 208.467 713.877 193.931H703.877H693.877C693.877 205.424 691.075 212.513 687.032 216.845L694.342 223.668ZM703.877 193.931H713.877V125.604H703.877H693.877V193.931H703.877ZM703.877 125.604V135.604H724.534V125.604V115.604H703.877V125.604ZM780.069 148.758H770.069V186.414L788.751 153.719L780.069 148.758ZM798.683 130.598L803.661 139.271V139.271L798.683 130.598ZM856.795 131.506L861.897 122.905V122.905L856.795 131.506ZM877.906 153.979L869.075 158.671L869.09 158.699L869.105 158.728L877.906 153.979ZM877.906 220.944L886.767 225.579V225.579L877.906 220.944ZM856.568 243.871L851.423 235.296L851.391 235.315L851.359 235.335L856.568 243.871ZM798.229 245.006L793.18 253.638L793.215 253.658L793.25 253.679L798.229 245.006ZM780.069 227.073L788.784 222.17L770.069 188.898V227.073H780.069ZM780.069 250V260H790.069V250H780.069ZM759.412 250H749.412V260H759.412V250ZM759.412 82.02V72.02H749.412V82.02H759.412ZM780.069 82.02H790.069V72.02H780.069V82.02ZM858.838 162.832L867.624 158.057V158.057L858.838 162.832ZM843.402 146.942L838.44 155.624L838.484 155.649L838.528 155.674L843.402 146.942ZM801.18 147.169L806.141 155.851L806.174 155.833L806.206 155.814L801.18 147.169ZM785.744 163.286L776.993 158.445L776.975 158.478L776.957 158.511L785.744 163.286ZM785.744 212.318L776.915 217.014L776.975 217.127L777.038 217.239L785.744 212.318ZM801.18 228.435L796.065 237.028L796.184 237.099L796.306 237.167L801.18 228.435ZM843.402 228.435L848.363 237.117L848.396 237.099L848.428 237.08L843.402 228.435ZM858.838 212.318L867.624 217.093L867.645 217.054L867.666 217.014L858.838 212.318ZM780.069 148.758L788.751 153.719C792.017 148.005 796.868 143.17 803.661 139.271L798.683 130.598L793.704 121.925C784.153 127.408 776.595 134.681 771.386 143.797L780.069 148.758ZM798.683 130.598L803.661 139.271C810.159 135.541 817.715 133.561 826.604 133.561V123.561V113.561C814.608 113.561 803.551 116.273 793.704 121.925L798.683 130.598ZM826.604 123.561V133.561C836.153 133.561 844.429 135.798 851.693 140.107L856.795 131.506L861.897 122.905C851.303 116.621 839.452 113.561 826.604 113.561V123.561ZM856.795 131.506L851.693 140.107C858.953 144.413 864.739 150.51 869.075 158.671L877.906 153.979L886.737 149.287C880.781 138.077 872.494 129.192 861.897 122.905L856.795 131.506ZM877.906 153.979L869.105 158.728C873.337 166.569 875.624 176.006 875.624 187.348H885.624H895.624C895.624 173.266 892.765 160.457 886.706 149.23L877.906 153.979ZM885.624 187.348H875.624C875.624 198.509 873.348 208.081 869.045 216.309L877.906 220.944L886.767 225.579C892.754 214.133 895.624 201.308 895.624 187.348H885.624ZM877.906 220.944L869.045 216.309C864.709 224.598 858.847 230.841 851.423 235.296L856.568 243.871L861.713 252.446C872.448 246.005 880.812 236.963 886.767 225.579L877.906 220.944ZM856.568 243.871L851.359 235.335C844.089 239.771 835.921 242.043 826.604 242.043V252.043V262.043C839.381 262.043 851.189 258.867 861.776 252.407L856.568 243.871ZM826.604 252.043V242.043C817.357 242.043 809.662 240.039 803.207 236.333L798.229 245.006L793.25 253.679C803.139 259.356 814.361 262.043 826.604 262.043V252.043ZM798.229 245.006L803.278 236.374C796.608 232.473 791.904 227.716 788.784 222.17L780.069 227.073L771.353 231.976C776.406 240.958 783.808 248.156 793.18 253.638L798.229 245.006ZM780.069 227.073H770.069V250H780.069H790.069V227.073H780.069ZM780.069 250V240H759.412V250V260H780.069V250ZM759.412 250H769.412V82.02H759.412H749.412V250H759.412ZM759.412 82.02V92.02H780.069V82.02V72.02H759.412V82.02ZM780.069 82.02H770.069V148.758H780.069H790.069V82.02H780.069ZM864.513 187.348H874.513C874.513 176.605 872.339 166.732 867.624 158.057L858.838 162.832L850.051 167.607C852.903 172.855 854.513 179.326 854.513 187.348H864.513ZM858.838 162.832L867.624 158.057C862.997 149.543 856.541 142.823 848.275 138.21L843.402 146.942L838.528 155.674C843.277 158.325 847.112 162.199 850.051 167.607L858.838 162.832ZM843.402 146.942L848.363 138.26C840.413 133.717 831.651 131.494 822.291 131.494V141.494V151.494C828.367 151.494 833.678 152.903 838.44 155.624L843.402 146.942ZM822.291 141.494V131.494C812.968 131.494 804.196 133.848 796.154 138.524L801.18 147.169L806.206 155.814C811.178 152.923 816.48 151.494 822.291 151.494V141.494ZM801.18 147.169L796.218 138.487C788.1 143.126 781.714 149.911 776.993 158.445L785.744 163.286L794.494 168.127C797.642 162.435 801.548 158.476 806.141 155.851L801.18 147.169ZM785.744 163.286L776.957 158.511C772.255 167.163 770.069 176.952 770.069 187.575H780.069H790.069C790.069 179.735 791.666 173.332 794.53 168.061L785.744 163.286ZM780.069 187.575H770.069C770.069 198.325 772.245 208.234 776.915 217.014L785.744 212.318L794.572 207.622C791.676 202.176 790.069 195.591 790.069 187.575H780.069ZM785.744 212.318L777.038 217.239C781.758 225.589 788.092 232.282 796.065 237.028L801.18 228.435L806.295 219.842C801.555 217.021 797.599 212.97 794.449 207.397L785.744 212.318ZM801.18 228.435L796.306 237.167C804.327 241.644 813.045 243.883 822.291 243.883V233.883V223.883C816.403 223.883 811.047 222.49 806.053 219.703L801.18 228.435ZM822.291 233.883V243.883C831.651 243.883 840.413 241.66 848.363 237.117L843.402 228.435L838.44 219.753C833.678 222.474 828.367 223.883 822.291 223.883V233.883ZM843.402 228.435L848.428 237.08C856.604 232.326 863.014 225.576 867.624 217.093L858.838 212.318L850.051 207.543C847.095 212.982 843.214 216.977 838.376 219.79L843.402 228.435ZM858.838 212.318L867.666 217.014C872.348 208.212 874.513 198.22 874.513 187.348H864.513H854.513C854.513 195.544 852.894 202.199 850.009 207.622L858.838 212.318Z" fill="url(#paint1_linear_8_57)" mask="url(#path-3-outside-2_8_57)"/>
<defs>
<linearGradient id="paint0_linear_8_57" x1="896.236" y1="170.5" x2="436.236" y2="170.5" gradientUnits="userSpaceOnUse">
<stop offset="0.1" stop-color="#00AEEC"/>
<stop offset="0.9" stop-color="#FB7299"/>
</linearGradient>
<linearGradient id="paint1_linear_8_57" x1="896.236" y1="170.5" x2="436.236" y2="170.5" gradientUnits="userSpaceOnUse">
<stop offset="0.1" stop-color="#00AEEC"/>
<stop offset="0.9" stop-color="#FB7299"/>
</linearGradient>
</defs>
</svg>
