<svg width="1660" height="358" viewBox="0 0 1660 358" fill="none" xmlns="http://www.w3.org/2000/svg">
<rect x="174" width="369" height="300" rx="70" fill="#FF0033"/>
<path d="M434.082 136.962C444.193 142.714 444.193 157.286 434.082 163.038L325.667 224.715C315.668 230.404 303.25 223.182 303.25 211.678V88.3224C303.25 76.8178 315.668 69.5958 325.667 75.2846L434.082 136.962Z" fill="white"/>
<path d="M348.5 300C348.5 300 348.73 299.977 349.081 300H433C433 300 365.25 348.453 356 353C346.482 357.679 343.904 350.5 344.5 346C345.096 341.5 351.5 311.5 352.5 305.5C353.286 300.786 350.367 300.084 349.081 300H348.5Z" fill="#FF0033"/>
<path d="M348.5 300C348.5 300 353.5 299.5 352.5 305.5C351.5 311.5 345.096 341.5 344.5 346C343.904 350.5 346.482 357.679 356 353C365.25 348.453 433 300 433 300H348.5Z" stroke="#FF0033" stroke-opacity="0.133333"/>
<rect y="144" width="27" height="64" rx="13.5" fill="#FB7299"/>
<rect x="690" y="145" width="27" height="64" rx="13.5" fill="#00A1D6"/>
<rect x="126" y="123" width="27" height="109" rx="13.5" fill="#FB7299"/>
<rect x="564" y="123" width="27" height="109" rx="13.5" fill="#00A1D6"/>
<rect x="84" y="63" width="27" height="223" rx="13.5" fill="#FB7299"/>
<rect x="606" y="63" width="27" height="223" rx="13.5" fill="#00A1D6"/>
<rect x="42" y="110" width="27" height="130" rx="13.5" fill="#FB7299"/>
<rect x="648" y="112" width="27" height="130" rx="13.5" fill="#00A1D6"/>
<mask id="path-13-outside-1_0_1" maskUnits="userSpaceOnUse" x="763" y="98" width="429" height="182" fill="black">
<rect fill="white" x="763" y="98" width="429" height="182"/>
<path d="M904.255 108.781L852.726 207.299V267H832.069V207.299L780.313 108.781H803.24L842.284 188.912L881.328 108.781H904.255ZM980.296 269.043C968.644 269.043 958.05 266.395 948.516 261.098C939.134 255.801 931.718 248.31 926.27 238.625C920.974 228.788 918.325 217.438 918.325 204.575C918.325 191.863 921.049 180.664 926.497 170.979C932.097 161.142 939.663 153.651 949.197 148.506C958.731 143.209 969.4 140.561 981.204 140.561C993.008 140.561 1003.68 143.209 1013.21 148.506C1022.75 153.651 1030.24 161.067 1035.68 170.752C1041.28 180.437 1044.08 191.712 1044.08 204.575C1044.08 217.438 1041.21 228.788 1035.46 238.625C1029.86 248.31 1022.22 255.801 1012.53 261.098C1002.85 266.395 992.1 269.043 980.296 269.043ZM980.296 250.883C987.712 250.883 994.673 249.143 1001.18 245.662C1007.69 242.181 1012.91 236.96 1016.84 229.999C1020.93 223.038 1022.97 214.563 1022.97 204.575C1022.97 194.587 1021.01 186.112 1017.07 179.151C1013.14 172.19 1007.99 167.044 1001.63 163.715C995.278 160.234 988.393 158.494 980.977 158.494C973.411 158.494 966.449 160.234 960.093 163.715C953.889 167.044 948.895 172.19 945.111 179.151C941.328 186.112 939.436 194.587 939.436 204.575C939.436 214.714 941.252 223.265 944.884 230.226C948.668 237.187 953.662 242.408 959.866 245.889C966.071 249.218 972.881 250.883 980.296 250.883ZM1181.57 142.604V267H1160.91V248.613C1156.97 254.969 1151.45 259.963 1144.34 263.595C1137.38 267.076 1129.66 268.816 1121.18 268.816C1111.5 268.816 1102.8 266.849 1095.08 262.914C1087.36 258.828 1081.23 252.775 1076.69 244.754C1072.3 236.733 1070.11 226.972 1070.11 215.471V142.604H1090.54V212.747C1090.54 225.005 1093.64 234.463 1099.85 241.122C1106.05 247.629 1114.52 250.883 1125.27 250.883C1136.32 250.883 1145.02 247.478 1151.37 240.668C1157.73 233.858 1160.91 223.946 1160.91 210.931V142.604H1181.57Z"/>
</mask>
<path d="M904.255 108.781L852.726 207.299V267H832.069V207.299L780.313 108.781H803.24L842.284 188.912L881.328 108.781H904.255ZM980.296 269.043C968.644 269.043 958.05 266.395 948.516 261.098C939.134 255.801 931.718 248.31 926.27 238.625C920.974 228.788 918.325 217.438 918.325 204.575C918.325 191.863 921.049 180.664 926.497 170.979C932.097 161.142 939.663 153.651 949.197 148.506C958.731 143.209 969.4 140.561 981.204 140.561C993.008 140.561 1003.68 143.209 1013.21 148.506C1022.75 153.651 1030.24 161.067 1035.68 170.752C1041.28 180.437 1044.08 191.712 1044.08 204.575C1044.08 217.438 1041.21 228.788 1035.46 238.625C1029.86 248.31 1022.22 255.801 1012.53 261.098C1002.85 266.395 992.1 269.043 980.296 269.043ZM980.296 250.883C987.712 250.883 994.673 249.143 1001.18 245.662C1007.69 242.181 1012.91 236.96 1016.84 229.999C1020.93 223.038 1022.97 214.563 1022.97 204.575C1022.97 194.587 1021.01 186.112 1017.07 179.151C1013.14 172.19 1007.99 167.044 1001.63 163.715C995.278 160.234 988.393 158.494 980.977 158.494C973.411 158.494 966.449 160.234 960.093 163.715C953.889 167.044 948.895 172.19 945.111 179.151C941.328 186.112 939.436 194.587 939.436 204.575C939.436 214.714 941.252 223.265 944.884 230.226C948.668 237.187 953.662 242.408 959.866 245.889C966.071 249.218 972.881 250.883 980.296 250.883ZM1181.57 142.604V267H1160.91V248.613C1156.97 254.969 1151.45 259.963 1144.34 263.595C1137.38 267.076 1129.66 268.816 1121.18 268.816C1111.5 268.816 1102.8 266.849 1095.08 262.914C1087.36 258.828 1081.23 252.775 1076.69 244.754C1072.3 236.733 1070.11 226.972 1070.11 215.471V142.604H1090.54V212.747C1090.54 225.005 1093.64 234.463 1099.85 241.122C1106.05 247.629 1114.52 250.883 1125.27 250.883C1136.32 250.883 1145.02 247.478 1151.37 240.668C1157.73 233.858 1160.91 223.946 1160.91 210.931V142.604H1181.57Z" fill="#FF0033"/>
<path d="M904.255 108.781L913.116 113.416L920.771 98.781H904.255V108.781ZM852.726 207.299L843.865 202.664L842.726 204.842V207.299H852.726ZM852.726 267V277H862.726V267H852.726ZM832.069 267H822.069V277H832.069V267ZM832.069 207.299H842.069V204.832L840.922 202.648L832.069 207.299ZM780.313 108.781V98.781H763.764L771.46 113.432L780.313 108.781ZM803.24 108.781L812.23 104.401L809.491 98.781H803.24V108.781ZM842.284 188.912L833.294 193.292L842.284 211.742L851.274 193.292L842.284 188.912ZM881.328 108.781V98.781H875.077L872.338 104.401L881.328 108.781ZM904.255 108.781L895.394 104.146L843.865 202.664L852.726 207.299L861.587 211.934L913.116 113.416L904.255 108.781ZM852.726 207.299H842.726V267H852.726H862.726V207.299H852.726ZM852.726 267V257H832.069V267V277H852.726V267ZM832.069 267H842.069V207.299H832.069H822.069V267H832.069ZM832.069 207.299L840.922 202.648L789.166 104.13L780.313 108.781L771.46 113.432L823.216 211.95L832.069 207.299ZM780.313 108.781V118.781H803.24V108.781V98.781H780.313V108.781ZM803.24 108.781L794.25 113.161L833.294 193.292L842.284 188.912L851.274 184.532L812.23 104.401L803.24 108.781ZM842.284 188.912L851.274 193.292L890.318 113.161L881.328 108.781L872.338 104.401L833.294 184.532L842.284 188.912ZM881.328 108.781V118.781H904.255V108.781V98.781H881.328V108.781ZM948.516 261.098L943.601 269.806L943.63 269.823L943.66 269.84L948.516 261.098ZM926.27 238.625L917.466 243.366L917.509 243.447L917.555 243.528L926.27 238.625ZM926.497 170.979L917.807 166.032L917.794 166.054L917.782 166.076L926.497 170.979ZM949.197 148.506L953.947 157.306L954.001 157.277L954.054 157.248L949.197 148.506ZM1013.21 148.506L1008.36 157.248L1008.41 157.277L1008.46 157.306L1013.21 148.506ZM1035.68 170.752L1026.97 175.655L1027 175.706L1027.03 175.757L1035.68 170.752ZM1035.46 238.625L1026.82 233.578L1026.81 233.599L1026.8 233.62L1035.46 238.625ZM1012.53 261.098L1017.33 269.872V269.872L1012.53 261.098ZM1016.84 229.999L1008.22 224.937L1008.18 225.007L1008.14 225.078L1016.84 229.999ZM1001.63 163.715L996.831 172.486L996.912 172.53L996.994 172.573L1001.63 163.715ZM960.093 163.715L964.822 172.527L964.859 172.506L964.897 172.486L960.093 163.715ZM945.111 179.151L953.898 183.926V183.926L945.111 179.151ZM944.884 230.226L936.019 234.852L936.058 234.927L936.098 235.001L944.884 230.226ZM959.866 245.889L954.974 254.61L955.056 254.656L955.138 254.701L959.866 245.889ZM980.296 269.043V259.043C970.223 259.043 961.32 256.771 953.373 252.356L948.516 261.098L943.66 269.84C954.781 276.018 967.064 279.043 980.296 279.043V269.043ZM948.516 261.098L953.432 252.39C945.692 248.02 939.568 241.868 934.986 233.722L926.27 238.625L917.555 243.528C923.869 254.752 932.576 263.583 943.601 269.806L948.516 261.098ZM926.27 238.625L935.075 233.884C930.675 225.712 928.325 216.036 928.325 204.575H918.325H908.325C908.325 218.841 911.273 231.865 917.466 243.366L926.27 238.625ZM918.325 204.575H928.325C928.325 193.33 930.722 183.866 935.213 175.882L926.497 170.979L917.782 166.076C911.377 177.463 908.325 190.396 908.325 204.575H918.325ZM926.497 170.979L935.188 175.926C939.904 167.641 946.137 161.521 953.947 157.306L949.197 148.506L944.448 139.706C933.19 145.782 924.289 154.644 917.807 166.032L926.497 170.979ZM949.197 148.506L954.054 157.248C961.981 152.843 970.956 150.561 981.204 150.561V140.561V130.561C967.845 130.561 955.481 133.575 944.341 139.764L949.197 148.506ZM981.204 140.561V150.561C991.453 150.561 1000.43 152.843 1008.36 157.248L1013.21 148.506L1018.07 139.764C1006.93 133.575 994.564 130.561 981.204 130.561V140.561ZM1013.21 148.506L1008.46 157.306C1016.29 161.529 1022.42 167.573 1026.97 175.655L1035.68 170.752L1044.4 165.849C1038.05 154.561 1029.2 145.773 1017.96 139.706L1013.21 148.506ZM1035.68 170.752L1027.03 175.757C1031.62 183.705 1034.08 193.202 1034.08 204.575H1044.08H1054.08C1054.08 190.221 1050.95 177.169 1044.34 165.747L1035.68 170.752ZM1044.08 204.575H1034.08C1034.08 215.898 1031.57 225.462 1026.82 233.578L1035.46 238.625L1044.09 243.672C1050.85 232.114 1054.08 218.979 1054.08 204.575H1044.08ZM1035.46 238.625L1026.8 233.62C1022.1 241.742 1015.79 247.919 1007.73 252.324L1012.53 261.098L1017.33 269.872C1028.64 263.684 1037.61 254.879 1044.11 243.63L1035.46 238.625ZM1012.53 261.098L1007.73 252.324C999.62 256.761 990.543 259.043 980.296 259.043V269.043V279.043C993.658 279.043 1006.07 276.029 1017.33 269.872L1012.53 261.098ZM980.296 250.883V260.883C989.349 260.883 997.931 258.741 1005.9 254.48L1001.18 245.662L996.464 236.844C991.415 239.545 986.075 240.883 980.296 240.883V250.883ZM1001.18 245.662L1005.9 254.48C1014.22 250.03 1020.76 243.388 1025.55 234.92L1016.84 229.999L1008.14 225.078C1005.06 230.532 1001.16 234.333 996.464 236.844L1001.18 245.662ZM1016.84 229.999L1025.47 235.061C1030.65 226.24 1032.97 215.923 1032.97 204.575H1022.97H1012.97C1012.97 213.203 1011.21 219.836 1008.22 224.937L1016.84 229.999ZM1022.97 204.575H1032.97C1032.97 193.286 1030.75 183.023 1025.78 174.23L1017.07 179.151L1008.36 184.072C1011.26 189.202 1012.97 195.888 1012.97 204.575H1022.97ZM1017.07 179.151L1025.78 174.23C1021.01 165.791 1014.53 159.18 1006.27 154.857L1001.63 163.715L996.994 172.573C1001.45 174.909 1005.27 178.588 1008.36 184.072L1017.07 179.151ZM1001.63 163.715L1006.44 154.944C998.574 150.638 990.031 148.494 980.977 148.494V158.494V168.494C986.755 168.494 991.983 169.831 996.831 172.486L1001.63 163.715ZM980.977 158.494V148.494C971.809 148.494 963.185 150.621 955.29 154.944L960.093 163.715L964.897 172.486C969.714 169.848 975.013 168.494 980.977 168.494V158.494ZM960.093 163.715L955.365 154.903C947.234 159.266 940.919 165.924 936.325 174.376L945.111 179.151L953.898 183.926C956.871 178.456 960.543 174.822 964.822 172.527L960.093 163.715ZM945.111 179.151L936.325 174.376C931.564 183.136 929.436 193.345 929.436 204.575H939.436H949.436C949.436 195.829 951.092 189.088 953.898 183.926L945.111 179.151ZM939.436 204.575H929.436C929.436 215.87 931.456 226.107 936.019 234.852L944.884 230.226L953.75 225.6C951.049 220.422 949.436 213.559 949.436 204.575H939.436ZM944.884 230.226L936.098 235.001C940.676 243.424 946.943 250.105 954.974 254.61L959.866 245.889L964.759 237.168C960.381 234.712 956.66 230.95 953.671 225.451L944.884 230.226ZM959.866 245.889L955.138 254.701C962.875 258.852 971.322 260.883 980.296 260.883V250.883V240.883C974.441 240.883 969.268 239.585 964.595 237.077L959.866 245.889ZM1181.57 142.604H1191.57V132.604H1181.57V142.604ZM1181.57 267V277H1191.57V267H1181.57ZM1160.91 267H1150.91V277H1160.91V267ZM1160.91 248.613H1170.91V213.461L1152.41 243.349L1160.91 248.613ZM1144.34 263.595L1148.81 272.539L1148.85 272.52L1148.89 272.501L1144.34 263.595ZM1095.08 262.914L1090.4 271.752L1090.47 271.788L1090.54 271.823L1095.08 262.914ZM1076.69 244.754L1067.92 249.554L1067.95 249.617L1067.99 249.68L1076.69 244.754ZM1070.11 142.604V132.604H1060.11V142.604H1070.11ZM1090.54 142.604H1100.54V132.604H1090.54V142.604ZM1099.85 241.122L1092.53 247.939L1092.57 247.981L1092.61 248.023L1099.85 241.122ZM1151.37 240.668L1144.06 233.845V233.845L1151.37 240.668ZM1160.91 142.604V132.604H1150.91V142.604H1160.91ZM1181.57 142.604H1171.57V267H1181.57H1191.57V142.604H1181.57ZM1181.57 267V257H1160.91V267V277H1181.57V267ZM1160.91 267H1170.91V248.613H1160.91H1150.91V267H1160.91ZM1160.91 248.613L1152.41 243.349C1149.5 248.046 1145.39 251.828 1139.79 254.689L1144.34 263.595L1148.89 272.501C1157.51 268.098 1164.45 261.892 1169.41 253.877L1160.91 248.613ZM1144.34 263.595L1139.87 254.651C1134.41 257.377 1128.25 258.816 1121.18 258.816V268.816V278.816C1131.07 278.816 1140.34 276.774 1148.81 272.539L1144.34 263.595ZM1121.18 268.816V258.816C1112.89 258.816 1105.77 257.141 1099.62 254.005L1095.08 262.914L1090.54 271.823C1099.82 276.556 1110.11 278.816 1121.18 278.816V268.816ZM1095.08 262.914L1099.76 254.076C1093.82 250.934 1089.05 246.284 1085.39 239.828L1076.69 244.754L1067.99 249.68C1073.41 259.265 1080.9 266.722 1090.4 271.752L1095.08 262.914ZM1076.69 244.754L1085.46 239.954C1082.06 233.737 1080.11 225.719 1080.11 215.471H1070.11H1060.11C1060.11 228.225 1062.54 239.729 1067.92 249.554L1076.69 244.754ZM1070.11 215.471H1080.11V142.604H1070.11H1060.11V215.471H1070.11ZM1070.11 142.604V152.604H1090.54V142.604V132.604H1070.11V142.604ZM1090.54 142.604H1080.54V212.747H1090.54H1100.54V142.604H1090.54ZM1090.54 212.747H1080.54C1080.54 226.641 1084.07 238.866 1092.53 247.939L1099.85 241.122L1107.16 234.305C1103.21 230.061 1100.54 223.369 1100.54 212.747H1090.54ZM1099.85 241.122L1092.61 248.023C1101.06 256.891 1112.37 260.883 1125.27 260.883V250.883V240.883C1116.68 240.883 1111.04 238.368 1107.08 234.221L1099.85 241.122ZM1125.27 250.883V260.883C1138.53 260.883 1150.09 256.703 1158.69 247.491L1151.37 240.668L1144.06 233.845C1139.95 238.253 1134.1 240.883 1125.27 240.883V250.883ZM1151.37 240.668L1158.69 247.491C1167.35 238.203 1170.91 225.467 1170.91 210.931H1160.91H1150.91C1150.91 222.424 1148.11 229.513 1144.06 233.845L1151.37 240.668ZM1160.91 210.931H1170.91V142.604H1160.91H1150.91V210.931H1160.91ZM1160.91 142.604V152.604H1181.57V142.604V132.604H1160.91V142.604Z" fill="#FF0033" mask="url(#path-13-outside-1_0_1)"/>
<mask id="path-15-outside-2_0_1" maskUnits="userSpaceOnUse" x="1207" y="89" width="453" height="191" fill="black">
<rect fill="white" x="1207" y="89" width="453" height="191"/>
<path d="M1266.74 108.781C1283.99 108.781 1298.9 112.035 1311.46 118.542C1324.17 124.898 1333.85 134.054 1340.51 146.009C1347.32 157.964 1350.73 172.038 1350.73 188.231C1350.73 204.424 1347.32 218.498 1340.51 230.453C1333.85 242.257 1324.17 251.337 1311.46 257.693C1298.9 263.898 1283.99 267 1266.74 267H1217.48V108.781H1266.74ZM1266.74 249.975C1287.17 249.975 1302.76 244.603 1313.5 233.858C1324.24 222.962 1329.62 207.753 1329.62 188.231C1329.62 168.558 1324.17 153.197 1313.27 142.15C1302.53 131.103 1287.02 125.579 1266.74 125.579H1238.14V249.975H1266.74ZM1488.3 142.604V267H1467.64V248.613C1463.71 254.969 1458.18 259.963 1451.07 263.595C1444.11 267.076 1436.39 268.816 1427.92 268.816C1418.23 268.816 1409.53 266.849 1401.81 262.914C1394.09 258.828 1387.96 252.775 1383.42 244.754C1379.03 236.733 1376.84 226.972 1376.84 215.471V142.604H1397.27V212.747C1397.27 225.005 1400.37 234.463 1406.58 241.122C1412.78 247.629 1421.26 250.883 1432 250.883C1443.05 250.883 1451.75 247.478 1458.11 240.668C1464.46 233.858 1467.64 223.946 1467.64 210.931V142.604H1488.3ZM1543.83 165.758C1548.07 158.343 1554.27 152.289 1562.45 147.598C1570.62 142.907 1579.93 140.561 1590.37 140.561C1601.57 140.561 1611.63 143.209 1620.56 148.506C1629.49 153.803 1636.52 161.294 1641.67 170.979C1646.81 180.513 1649.39 191.636 1649.39 204.348C1649.39 216.909 1646.81 228.107 1641.67 237.944C1636.52 247.781 1629.41 255.423 1620.33 260.871C1611.4 266.319 1601.41 269.043 1590.37 269.043C1579.62 269.043 1570.16 266.697 1561.99 262.006C1553.97 257.315 1547.92 251.337 1543.83 244.073V267H1523.18V99.02H1543.83V165.758ZM1628.28 204.348C1628.28 194.965 1626.38 186.793 1622.6 179.832C1618.82 172.871 1613.67 167.574 1607.17 163.942C1600.81 160.31 1593.77 158.494 1586.05 158.494C1578.49 158.494 1571.45 160.386 1564.94 164.169C1558.59 167.801 1553.44 173.173 1549.51 180.286C1545.72 187.247 1543.83 195.344 1543.83 204.575C1543.83 213.958 1545.72 222.205 1549.51 229.318C1553.44 236.279 1558.59 241.652 1564.94 245.435C1571.45 249.067 1578.49 250.883 1586.05 250.883C1593.77 250.883 1600.81 249.067 1607.17 245.435C1613.67 241.652 1618.82 236.279 1622.6 229.318C1626.38 222.205 1628.28 213.882 1628.28 204.348Z"/>
</mask>
<path d="M1266.74 108.781C1283.99 108.781 1298.9 112.035 1311.46 118.542C1324.17 124.898 1333.85 134.054 1340.51 146.009C1347.32 157.964 1350.73 172.038 1350.73 188.231C1350.73 204.424 1347.32 218.498 1340.51 230.453C1333.85 242.257 1324.17 251.337 1311.46 257.693C1298.9 263.898 1283.99 267 1266.74 267H1217.48V108.781H1266.74ZM1266.74 249.975C1287.17 249.975 1302.76 244.603 1313.5 233.858C1324.24 222.962 1329.62 207.753 1329.62 188.231C1329.62 168.558 1324.17 153.197 1313.27 142.15C1302.53 131.103 1287.02 125.579 1266.74 125.579H1238.14V249.975H1266.74ZM1488.3 142.604V267H1467.64V248.613C1463.71 254.969 1458.18 259.963 1451.07 263.595C1444.11 267.076 1436.39 268.816 1427.92 268.816C1418.23 268.816 1409.53 266.849 1401.81 262.914C1394.09 258.828 1387.96 252.775 1383.42 244.754C1379.03 236.733 1376.84 226.972 1376.84 215.471V142.604H1397.27V212.747C1397.27 225.005 1400.37 234.463 1406.58 241.122C1412.78 247.629 1421.26 250.883 1432 250.883C1443.05 250.883 1451.75 247.478 1458.11 240.668C1464.46 233.858 1467.64 223.946 1467.64 210.931V142.604H1488.3ZM1543.83 165.758C1548.07 158.343 1554.27 152.289 1562.45 147.598C1570.62 142.907 1579.93 140.561 1590.37 140.561C1601.57 140.561 1611.63 143.209 1620.56 148.506C1629.49 153.803 1636.52 161.294 1641.67 170.979C1646.81 180.513 1649.39 191.636 1649.39 204.348C1649.39 216.909 1646.81 228.107 1641.67 237.944C1636.52 247.781 1629.41 255.423 1620.33 260.871C1611.4 266.319 1601.41 269.043 1590.37 269.043C1579.62 269.043 1570.16 266.697 1561.99 262.006C1553.97 257.315 1547.92 251.337 1543.83 244.073V267H1523.18V99.02H1543.83V165.758ZM1628.28 204.348C1628.28 194.965 1626.38 186.793 1622.6 179.832C1618.82 172.871 1613.67 167.574 1607.17 163.942C1600.81 160.31 1593.77 158.494 1586.05 158.494C1578.49 158.494 1571.45 160.386 1564.94 164.169C1558.59 167.801 1553.44 173.173 1549.51 180.286C1545.72 187.247 1543.83 195.344 1543.83 204.575C1543.83 213.958 1545.72 222.205 1549.51 229.318C1553.44 236.279 1558.59 241.652 1564.94 245.435C1571.45 249.067 1578.49 250.883 1586.05 250.883C1593.77 250.883 1600.81 249.067 1607.17 245.435C1613.67 241.652 1618.82 236.279 1622.6 229.318C1626.38 222.205 1628.28 213.882 1628.28 204.348Z" fill="url(#paint0_linear_0_1)"/>
<path d="M1311.46 118.542L1306.86 127.421L1306.92 127.454L1306.98 127.486L1311.46 118.542ZM1340.51 146.009L1331.78 150.875L1331.8 150.917L1331.82 150.959L1340.51 146.009ZM1340.51 230.453L1331.82 225.503L1331.81 225.522L1331.8 225.54L1340.51 230.453ZM1311.46 257.693L1315.89 266.659L1315.91 266.648L1315.93 266.637L1311.46 257.693ZM1217.48 267H1207.48V277H1217.48V267ZM1217.48 108.781V98.781H1207.48V108.781H1217.48ZM1313.5 233.858L1320.57 240.929L1320.6 240.904L1320.62 240.879L1313.5 233.858ZM1313.27 142.15L1306.1 149.122L1306.13 149.147L1306.15 149.172L1313.27 142.15ZM1238.14 125.579V115.579H1228.14V125.579H1238.14ZM1238.14 249.975H1228.14V259.975H1238.14V249.975ZM1266.74 108.781V118.781C1282.74 118.781 1296 121.795 1306.86 127.421L1311.46 118.542L1316.06 109.663C1301.8 102.274 1285.24 98.781 1266.74 98.781V108.781ZM1311.46 118.542L1306.98 127.486C1317.97 132.979 1326.14 140.747 1331.78 150.875L1340.51 146.009L1349.25 141.143C1341.57 127.36 1330.37 116.817 1315.93 109.598L1311.46 118.542ZM1340.51 146.009L1331.82 150.959C1337.63 161.158 1340.73 173.465 1340.73 188.231H1350.73H1360.73C1360.73 170.611 1357.01 154.77 1349.2 141.059L1340.51 146.009ZM1350.73 188.231H1340.73C1340.73 202.997 1337.63 215.304 1331.82 225.503L1340.51 230.453L1349.2 235.403C1357.01 221.692 1360.73 205.85 1360.73 188.231H1350.73ZM1340.51 230.453L1331.8 225.54C1326.17 235.521 1318.01 243.238 1306.98 248.749L1311.46 257.693L1315.93 266.637C1330.33 259.436 1341.54 248.993 1349.22 235.366L1340.51 230.453ZM1311.46 257.693L1307.03 248.727C1296.13 254.112 1282.8 257 1266.74 257V267V277C1285.18 277 1301.67 273.683 1315.89 266.659L1311.46 257.693ZM1266.74 267V257H1217.48V267V277H1266.74V267ZM1217.48 267H1227.48V108.781H1217.48H1207.48V267H1217.48ZM1217.48 108.781V118.781H1266.74V108.781V98.781H1217.48V108.781ZM1266.74 249.975V259.975C1288.88 259.975 1307.38 254.124 1320.57 240.929L1313.5 233.858L1306.43 226.787C1298.13 235.082 1285.46 239.975 1266.74 239.975V249.975ZM1313.5 233.858L1320.62 240.879C1333.68 227.634 1339.62 209.622 1339.62 188.231H1329.62H1319.62C1319.62 205.884 1314.81 218.29 1306.38 226.837L1313.5 233.858ZM1329.62 188.231H1339.62C1339.62 166.668 1333.6 148.514 1320.39 135.128L1313.27 142.15L1306.15 149.172C1314.74 157.881 1319.62 170.447 1319.62 188.231H1329.62ZM1313.27 142.15L1320.44 135.178C1307.27 121.639 1288.83 115.579 1266.74 115.579V125.579V135.579C1285.21 135.579 1297.78 140.567 1306.1 149.122L1313.27 142.15ZM1266.74 125.579V115.579H1238.14V125.579V135.579H1266.74V125.579ZM1238.14 125.579H1228.14V249.975H1238.14H1248.14V125.579H1238.14ZM1238.14 249.975V259.975H1266.74V249.975V239.975H1238.14V249.975ZM1488.3 142.604H1498.3V132.604H1488.3V142.604ZM1488.3 267V277H1498.3V267H1488.3ZM1467.64 267H1457.64V277H1467.64V267ZM1467.64 248.613H1477.64V213.461L1459.14 243.349L1467.64 248.613ZM1451.07 263.595L1455.54 272.539L1455.58 272.52L1455.62 272.501L1451.07 263.595ZM1401.81 262.914L1397.13 271.752L1397.2 271.788L1397.27 271.823L1401.81 262.914ZM1383.42 244.754L1374.65 249.554L1374.69 249.617L1374.72 249.68L1383.42 244.754ZM1376.84 142.604V132.604H1366.84V142.604H1376.84ZM1397.27 142.604H1407.27V132.604H1397.27V142.604ZM1406.58 241.122L1399.26 247.939L1399.3 247.981L1399.34 248.023L1406.58 241.122ZM1458.11 240.668L1450.8 233.845H1450.8L1458.11 240.668ZM1467.64 142.604V132.604H1457.64V142.604H1467.64ZM1488.3 142.604H1478.3V267H1488.3H1498.3V142.604H1488.3ZM1488.3 267V257H1467.64V267V277H1488.3V267ZM1467.64 267H1477.64V248.613H1467.64H1457.64V267H1467.64ZM1467.64 248.613L1459.14 243.349C1456.23 248.046 1452.12 251.828 1446.52 254.689L1451.07 263.595L1455.62 272.501C1464.24 268.098 1471.18 261.892 1476.14 253.877L1467.64 248.613ZM1451.07 263.595L1446.6 254.651C1441.14 257.377 1434.98 258.816 1427.92 258.816V268.816V278.816C1437.8 278.816 1447.07 276.774 1455.54 272.539L1451.07 263.595ZM1427.92 268.816V258.816C1419.62 258.816 1412.5 257.141 1406.35 254.005L1401.81 262.914L1397.27 271.823C1406.55 276.556 1416.84 278.816 1427.92 278.816V268.816ZM1401.81 262.914L1406.49 254.076C1400.55 250.934 1395.78 246.284 1392.13 239.828L1383.42 244.754L1374.72 249.68C1380.15 259.265 1387.63 266.722 1397.13 271.752L1401.81 262.914ZM1383.42 244.754L1392.2 239.954C1388.79 233.737 1386.84 225.719 1386.84 215.471H1376.84H1366.84C1366.84 228.225 1369.27 239.729 1374.65 249.554L1383.42 244.754ZM1376.84 215.471H1386.84V142.604H1376.84H1366.84V215.471H1376.84ZM1376.84 142.604V152.604H1397.27V142.604V132.604H1376.84V142.604ZM1397.27 142.604H1387.27V212.747H1397.27H1407.27V142.604H1397.27ZM1397.27 212.747H1387.27C1387.27 226.641 1390.81 238.866 1399.26 247.939L1406.58 241.122L1413.89 234.305C1409.94 230.061 1407.27 223.369 1407.27 212.747H1397.27ZM1406.58 241.122L1399.34 248.023C1407.8 256.891 1419.1 260.883 1432 260.883V250.883V240.883C1423.42 240.883 1417.77 238.368 1413.81 234.221L1406.58 241.122ZM1432 250.883V260.883C1445.26 260.883 1456.82 256.703 1465.42 247.491L1458.11 240.668L1450.8 233.845C1446.68 238.253 1440.84 240.883 1432 240.883V250.883ZM1458.11 240.668L1465.42 247.491C1474.09 238.203 1477.64 225.467 1477.64 210.931H1467.64H1457.64C1457.64 222.424 1454.84 229.513 1450.8 233.845L1458.11 240.668ZM1467.64 210.931H1477.64V142.604H1467.64H1457.64V210.931H1467.64ZM1467.64 142.604V152.604H1488.3V142.604V132.604H1467.64V142.604ZM1543.83 165.758H1533.83V203.414L1552.51 170.719L1543.83 165.758ZM1562.45 147.598L1567.42 156.271V156.271L1562.45 147.598ZM1620.56 148.506L1625.66 139.905V139.905L1620.56 148.506ZM1641.67 170.979L1632.84 175.671L1632.85 175.699L1632.87 175.728L1641.67 170.979ZM1641.67 237.944L1650.53 242.579V242.579L1641.67 237.944ZM1620.33 260.871L1615.19 252.296L1615.15 252.315L1615.12 252.335L1620.33 260.871ZM1561.99 262.006L1556.94 270.638L1556.98 270.658L1557.01 270.679L1561.99 262.006ZM1543.83 244.073L1552.55 239.17L1533.83 205.898V244.073H1543.83ZM1543.83 267V277H1553.83V267H1543.83ZM1523.18 267H1513.18V277H1523.18V267ZM1523.18 99.02V89.02H1513.18V99.02H1523.18ZM1543.83 99.02H1553.83V89.02H1543.83V99.02ZM1622.6 179.832L1631.39 175.057V175.057L1622.6 179.832ZM1607.17 163.942L1602.2 172.624L1602.25 172.649L1602.29 172.674L1607.17 163.942ZM1564.94 164.169L1569.9 172.851L1569.94 172.833L1569.97 172.814L1564.94 164.169ZM1549.51 180.286L1540.76 175.445L1540.74 175.478L1540.72 175.511L1549.51 180.286ZM1549.51 229.318L1540.68 234.014L1540.74 234.127L1540.8 234.239L1549.51 229.318ZM1564.94 245.435L1559.83 254.028L1559.95 254.099L1560.07 254.167L1564.94 245.435ZM1607.17 245.435L1612.13 254.117L1612.16 254.099L1612.19 254.08L1607.17 245.435ZM1622.6 229.318L1631.39 234.093L1631.41 234.054L1631.43 234.014L1622.6 229.318ZM1543.83 165.758L1552.51 170.719C1555.78 165.005 1560.63 160.17 1567.42 156.271L1562.45 147.598L1557.47 138.925C1547.92 144.408 1540.36 151.681 1535.15 160.797L1543.83 165.758ZM1562.45 147.598L1567.42 156.271C1573.92 152.541 1581.48 150.561 1590.37 150.561V140.561V130.561C1578.37 130.561 1567.31 133.273 1557.47 138.925L1562.45 147.598ZM1590.37 140.561V150.561C1599.92 150.561 1608.19 152.798 1615.46 157.107L1620.56 148.506L1625.66 139.905C1615.07 133.621 1603.22 130.561 1590.37 130.561V140.561ZM1620.56 148.506L1615.46 157.107C1622.72 161.413 1628.5 167.51 1632.84 175.671L1641.67 170.979L1650.5 166.287C1644.54 155.077 1636.26 146.192 1625.66 139.905L1620.56 148.506ZM1641.67 170.979L1632.87 175.728C1637.1 183.569 1639.39 193.006 1639.39 204.348H1649.39H1659.39C1659.39 190.266 1656.53 177.457 1650.47 166.23L1641.67 170.979ZM1649.39 204.348H1639.39C1639.39 215.509 1637.11 225.081 1632.81 233.309L1641.67 237.944L1650.53 242.579C1656.52 231.133 1659.39 218.308 1659.39 204.348H1649.39ZM1641.67 237.944L1632.81 233.309C1628.47 241.598 1622.61 247.841 1615.19 252.296L1620.33 260.871L1625.48 269.446C1636.21 263.005 1644.58 253.963 1650.53 242.579L1641.67 237.944ZM1620.33 260.871L1615.12 252.335C1607.85 256.771 1599.68 259.043 1590.37 259.043V269.043V279.043C1603.14 279.043 1614.95 275.867 1625.54 269.407L1620.33 260.871ZM1590.37 269.043V259.043C1581.12 259.043 1573.43 257.039 1566.97 253.333L1561.99 262.006L1557.01 270.679C1566.9 276.356 1578.12 279.043 1590.37 279.043V269.043ZM1561.99 262.006L1567.04 253.374C1560.37 249.473 1555.67 244.716 1552.55 239.17L1543.83 244.073L1535.12 248.976C1540.17 257.958 1547.57 265.156 1556.94 270.638L1561.99 262.006ZM1543.83 244.073H1533.83V267H1543.83H1553.83V244.073H1543.83ZM1543.83 267V257H1523.18V267V277H1543.83V267ZM1523.18 267H1533.18V99.02H1523.18H1513.18V267H1523.18ZM1523.18 99.02V109.02H1543.83V99.02V89.02H1523.18V99.02ZM1543.83 99.02H1533.83V165.758H1543.83H1553.83V99.02H1543.83ZM1628.28 204.348H1638.28C1638.28 193.605 1636.1 183.732 1631.39 175.057L1622.6 179.832L1613.82 184.607C1616.67 189.855 1618.28 196.326 1618.28 204.348H1628.28ZM1622.6 179.832L1631.39 175.057C1626.76 166.543 1620.3 159.823 1612.04 155.21L1607.17 163.942L1602.29 172.674C1607.04 175.325 1610.88 179.199 1613.82 184.607L1622.6 179.832ZM1607.17 163.942L1612.13 155.26C1604.18 150.717 1595.41 148.494 1586.05 148.494V158.494V168.494C1592.13 168.494 1597.44 169.903 1602.2 172.624L1607.17 163.942ZM1586.05 158.494V148.494C1576.73 148.494 1567.96 150.848 1559.92 155.524L1564.94 164.169L1569.97 172.814C1574.94 169.923 1580.24 168.494 1586.05 168.494V158.494ZM1564.94 164.169L1559.98 155.487C1551.86 160.126 1545.48 166.911 1540.76 175.445L1549.51 180.286L1558.26 185.127C1561.41 179.435 1565.31 175.476 1569.9 172.851L1564.94 164.169ZM1549.51 180.286L1540.72 175.511C1536.02 184.163 1533.83 193.952 1533.83 204.575H1543.83H1553.83C1553.83 196.735 1555.43 190.332 1558.29 185.061L1549.51 180.286ZM1543.83 204.575H1533.83C1533.83 215.325 1536.01 225.234 1540.68 234.014L1549.51 229.318L1558.34 224.622C1555.44 219.176 1553.83 212.591 1553.83 204.575H1543.83ZM1549.51 229.318L1540.8 234.239C1545.52 242.589 1551.86 249.282 1559.83 254.028L1564.94 245.435L1570.06 236.842C1565.32 234.021 1561.36 229.97 1558.21 224.397L1549.51 229.318ZM1564.94 245.435L1560.07 254.167C1568.09 258.644 1576.81 260.883 1586.05 260.883V250.883V240.883C1580.17 240.883 1574.81 239.49 1569.82 236.703L1564.94 245.435ZM1586.05 250.883V260.883C1595.41 260.883 1604.18 258.66 1612.13 254.117L1607.17 245.435L1602.2 236.753C1597.44 239.474 1592.13 240.883 1586.05 240.883V250.883ZM1607.17 245.435L1612.19 254.08C1620.37 249.326 1626.78 242.576 1631.39 234.093L1622.6 229.318L1613.82 224.543C1610.86 229.982 1606.98 233.977 1602.14 236.79L1607.17 245.435ZM1622.6 229.318L1631.43 234.014C1636.11 225.212 1638.28 215.22 1638.28 204.348H1628.28H1618.28C1618.28 212.544 1616.66 219.199 1613.77 224.622L1622.6 229.318Z" fill="url(#paint1_linear_0_1)" mask="url(#path-15-outside-2_0_1)"/>
<defs>
<linearGradient id="paint0_linear_0_1" x1="1660" y1="187.5" x2="1200" y2="187.5" gradientUnits="userSpaceOnUse">
<stop offset="0.1" stop-color="#00AEEC"/>
<stop offset="0.9" stop-color="#FB7299"/>
</linearGradient>
<linearGradient id="paint1_linear_0_1" x1="1660" y1="187.5" x2="1200" y2="187.5" gradientUnits="userSpaceOnUse">
<stop offset="0.1" stop-color="#00AEEC"/>
<stop offset="0.9" stop-color="#FB7299"/>
</linearGradient>
</defs>
</svg>
