<svg width="896" height="191" viewBox="0 0 896 191" fill="none" xmlns="http://www.w3.org/2000/svg">
<path d="M217.441 46.5413C230.023 46.5413 241.539 49.3726 251.877 55.1155H251.876C262.238 60.7208 270.39 68.8115 276.279 79.2805H276.278C282.36 89.8226 285.32 101.968 285.32 115.555C285.32 129.188 282.264 141.431 276.01 152.128C269.96 162.585 261.659 170.727 251.166 176.465C240.694 182.192 229.115 185.023 216.533 185.023C204.09 185.023 192.652 182.186 182.325 176.449L182.31 176.441L182.295 176.432C172.091 170.672 164.03 162.511 158.149 152.056L158.104 151.976C152.359 141.307 149.562 129.119 149.562 115.555C149.562 102.11 152.449 90.0438 158.376 79.5081L158.382 79.4964L158.388 79.4856C164.429 68.8731 172.663 60.6969 183.059 55.0862C193.383 49.3631 204.881 46.5413 217.441 46.5413ZM331.775 48.5842V123.727C331.775 135.147 334.65 143.215 339.713 148.665C344.792 153.984 351.849 156.863 361.506 156.863C371.448 156.862 378.721 153.845 383.956 148.237C389.155 142.666 392.145 134.165 392.145 121.911V48.5842H422.802V182.98H392.145V172.91C389.361 175.247 386.259 177.286 382.848 179.028L382.829 179.037L382.81 179.047C375.094 182.905 366.601 184.796 357.421 184.796C347.04 184.796 337.545 182.682 329.045 178.349L329.009 178.331L328.975 178.313C320.366 173.755 313.56 166.999 308.577 158.197L308.542 158.134C303.659 149.211 301.345 138.579 301.345 126.451V48.5842H331.775ZM42.6022 14.761L43.9713 17.5706L78.5201 88.4768L113.07 17.5706L114.439 14.761H148.75L144.921 22.0784L93.9625 119.507V182.98H63.3053V119.511L12.1227 22.0862L8.27501 14.761H42.6022ZM217.213 74.4739C210.448 74.474 204.318 76.021 198.731 79.0803L198.713 79.0911L198.694 79.1008C193.453 81.9133 189.119 86.3029 185.741 92.5188C182.447 98.5805 180.672 106.188 180.672 115.555C180.672 125.092 182.378 132.784 185.53 138.847C188.906 145.048 193.246 149.523 198.512 152.487C203.939 155.389 209.916 156.863 216.533 156.863C223.13 156.863 229.28 155.323 235.058 152.233C240.659 149.237 245.219 144.726 248.727 138.519L248.747 138.484L248.768 138.448C252.308 132.416 254.209 124.863 254.209 115.555C254.209 106.217 252.371 98.6367 248.954 92.5911C245.437 86.369 240.958 81.9566 235.55 79.1243L235.51 79.1028L235.469 79.0803C229.867 76.0125 223.81 74.4739 217.213 74.4739Z" fill="#FF0033" stroke="#FF0033" stroke-width="10"/>
<path d="M785.069 5V62.4238C788.331 59.3494 792.045 56.6234 796.193 54.2422C805.202 49.0702 815.385 46.541 826.604 46.541C838.627 46.5411 849.584 49.3951 859.345 55.1855C869.099 60.9717 876.756 69.1502 882.305 79.584C887.908 89.9646 890.624 101.931 890.624 115.328C890.624 128.588 887.903 140.6 882.337 151.241C876.792 161.84 869.064 170.175 859.171 176.118L859.172 176.119C849.415 182.073 838.516 185.023 826.604 185.023C815.111 185.023 804.77 182.506 795.74 177.322L795.722 177.312L795.705 177.302C791.745 174.986 788.194 172.357 785.069 169.415V182.98H754.412V5H785.069ZM638.506 48.584V123.727C638.506 135.146 641.382 143.214 646.445 148.665C651.523 153.984 658.581 156.863 668.238 156.863C678.179 156.863 685.452 153.845 690.687 148.236C695.887 142.665 698.877 134.165 698.877 121.911V48.584H729.534V182.98H698.877V172.91C696.093 175.247 692.99 177.287 689.58 179.028L689.56 179.038L689.542 179.047C681.826 182.905 673.332 184.796 664.152 184.796C653.772 184.796 644.277 182.682 635.776 178.349L635.741 178.331L635.707 178.312C627.098 173.755 620.291 167 615.308 158.197L615.291 158.166L615.273 158.134C610.391 149.211 608.077 138.579 608.077 126.451V48.584H638.506ZM502.974 14.7607C520.853 14.7607 536.583 18.1342 549.994 25.082H549.993C563.537 31.8684 573.961 41.7065 581.118 54.5557H581.117C588.411 67.3796 591.964 82.3229 591.964 99.2109C591.964 116.117 588.404 131.075 581.094 143.908L581.093 143.907C573.921 156.614 563.48 166.37 549.929 173.146L549.919 173.15L549.908 173.156C536.518 179.771 520.82 182.98 502.974 182.98H448.715V14.7607H502.974ZM822.291 74.4736C815.602 74.4736 809.433 76.1345 803.693 79.4717L803.676 79.4805L803.661 79.4902C798.196 82.6132 793.676 87.2684 790.137 93.6533L789.83 94.2305C786.706 100.224 785.069 107.286 785.069 115.555C785.069 124.228 786.807 131.627 790.128 137.894C793.652 144.11 798.173 148.79 803.676 152.081C809.41 155.269 815.586 156.863 822.291 156.863C829.174 156.863 835.337 155.257 840.887 152.093C846.559 148.795 851.073 144.112 854.443 137.913C857.764 131.653 859.512 124.176 859.512 115.328C859.512 106.626 857.763 99.3037 854.445 93.1992C851.084 87.0143 846.593 82.4294 840.964 79.2881L840.943 79.2754L840.921 79.2637C835.362 76.0871 829.188 74.4736 822.291 74.4736ZM479.373 155.955H502.974C522.538 155.955 536.665 150.828 546.184 141.318C555.765 131.598 560.853 117.793 560.853 99.2109C560.853 80.4825 555.693 66.5187 545.95 56.6406L545.937 56.6289L545.925 56.6162C536.393 46.8148 522.347 41.5586 502.974 41.5586H479.373V155.955Z" fill="url(#paint0_linear_8_57)" stroke="url(#paint1_linear_8_57)" stroke-width="10"/>
<defs>
<linearGradient id="paint0_linear_8_57" x1="896.236" y1="98.48" x2="436.236" y2="98.48" gradientUnits="userSpaceOnUse">
<stop offset="0.1" stop-color="#00AEEC"/>
<stop offset="0.9" stop-color="#FB7299"/>
</linearGradient>
<linearGradient id="paint1_linear_8_57" x1="896.236" y1="98.48" x2="436.236" y2="98.48" gradientUnits="userSpaceOnUse">
<stop offset="0.1" stop-color="#00AEEC"/>
<stop offset="0.9" stop-color="#FB7299"/>
</linearGradient>
</defs>
</svg>
