<svg xmlns="http://www.w3.org/2000/svg" width="717" height="356" viewBox="0 0 717 356" fill="none" role="img" aria-label="YouDub icon">
  <rect x="174" width="369" height="300" rx="70" fill="#FF0033"/>
  <path d="M436.082 137.962C446.193 143.714 446.193 158.286 436.082 164.038L327.667 225.715C317.668 231.404 305.25 224.182 305.25 212.678V89.3224C305.25 77.8178 317.668 70.5958 327.667 76.2846L436.082 137.962Z" fill="white"/>
  <path d="M348.5 300C348.5 300 348.73 299.977 349.081 300H433C433 300 365.25 348.453 356 353C346.482 357.679 343.904 350.5 344.5 346C345.096 341.5 351.5 311.5 352.5 305.5C353.286 300.786 350.367 300.084 349.081 300H348.5Z" fill="#FF0033"/>
  <path d="M348.5 300C348.5 300 353.5 299.5 352.5 305.5C351.5 311.5 345.096 341.5 344.5 346C343.904 350.5 346.482 357.679 356 353C365.25 348.453 433 300 433 300H348.5Z" stroke="#FF0033" stroke-opacity="0.133333"/>
  <rect y="144" width="27" height="64" rx="13.5" fill="#FB7299"/>
  <rect x="690" y="145" width="27" height="64" rx="13.5" fill="#00A1D6"/>
  <rect x="126" y="123" width="27" height="109" rx="13.5" fill="#FB7299"/>
  <rect x="564" y="123" width="27" height="109" rx="13.5" fill="#00A1D6"/>
  <rect x="84" y="63" width="27" height="223" rx="13.5" fill="#FB7299"/>
  <rect x="606" y="63" width="27" height="223" rx="13.5" fill="#00A1D6"/>
  <rect x="42" y="110" width="27" height="130" rx="13.5" fill="#FB7299"/>
  <rect x="648" y="112" width="27" height="130" rx="13.5" fill="#00A1D6"/>
</svg>
